<svg width="400" height="263" viewBox="0 0 400 263" fill="none" xmlns="http://www.w3.org/2000/svg">
<rect width="400" height="263" fill="#F7EDDD"/>
<g clip-path="url(#clip0_158_40)">
<path d="M253.761 135.44L253.783 135.451C254.129 133.342 254.297 131.188 254.297 129.056C254.297 127.147 254.152 125.228 253.884 123.353C254.152 125.217 254.286 127.103 254.286 128.989C254.286 131.154 254.107 133.319 253.761 135.44ZM168.906 116.288C168.85 116.243 168.806 116.199 168.75 116.143C168.828 116.221 168.906 116.299 168.996 116.377L176.306 122.616V122.605L168.906 116.288ZM228.795 92.1808H228.806L227.076 82.8281C227.054 82.7165 227.031 82.6161 226.998 82.5156C227.009 82.5714 227.031 82.6384 227.042 82.6942L228.795 92.1808ZM234.821 153.174L238.326 150.295L248.683 153.967C250.58 151.411 252.176 148.665 253.438 145.752L245.1 138.621L245.837 134.145C246.116 132.46 246.261 130.73 246.261 129C246.261 127.27 246.116 125.54 245.837 123.855L245.112 119.402L253.449 112.27C252.176 109.368 250.592 106.612 248.694 104.056L238.337 107.728L234.833 104.848C232.165 102.661 229.185 100.942 225.982 99.7366L221.73 98.1406L219.732 87.3147C216.58 86.9576 213.398 86.9576 210.246 87.3147L208.248 98.1629L204.018 99.7589C200.837 100.964 197.879 102.683 195.234 104.859L191.73 107.75L181.306 104.045C179.408 106.6 177.813 109.346 176.551 112.259L184.978 119.458L184.252 123.922C183.973 125.585 183.839 127.292 183.839 129C183.839 130.696 183.984 132.415 184.252 134.078L184.978 138.542L176.551 145.741C177.824 148.643 179.408 151.4 181.306 153.955L191.73 150.25L195.234 153.141C197.879 155.317 200.837 157.036 204.018 158.241L208.237 159.859L210.234 170.708C213.382 171.065 216.585 171.065 219.721 170.708L221.719 159.882L225.971 158.286C229.185 157.08 232.154 155.362 234.821 153.174ZM215.056 147.56C211.652 147.56 208.449 146.69 205.647 145.161C199.52 141.835 195.357 135.35 195.357 127.884C195.357 117.036 204.152 108.241 215 108.241C222.467 108.241 228.951 112.404 232.277 118.531C233.806 121.321 234.676 124.525 234.676 127.94C234.676 138.777 225.893 147.56 215.056 147.56ZM180.982 162.571C180.368 162.783 179.732 162.828 179.129 162.705C179.766 162.839 180.435 162.817 181.083 162.594L190.167 159.357C190.156 159.346 190.134 159.335 190.123 159.324L180.982 162.571ZM261.071 116.288L253.761 122.538C253.761 122.56 253.772 122.594 253.772 122.616L261.071 116.377C261.864 115.696 262.31 114.714 262.321 113.699C262.288 114.681 261.842 115.629 261.071 116.288Z" fill="#F6EDDD"/>
<path d="M262.299 144.022C262.355 144.547 262.299 145.083 262.109 145.596L262.009 145.886C259.991 151.509 256.978 156.722 253.114 161.277L252.913 161.511C252.445 162.065 251.819 162.462 251.119 162.652C250.42 162.841 249.679 162.813 248.996 162.571L239.922 159.346C236.593 162.088 232.833 164.261 228.795 165.775L227.042 175.261C226.91 175.975 226.564 176.632 226.05 177.144C225.535 177.656 224.877 178 224.163 178.129L223.862 178.185C220.945 178.713 217.987 178.978 215.022 178.978H215.056C218.036 178.978 221.016 178.71 223.917 178.185L224.219 178.129C224.933 178 225.591 177.656 226.105 177.144C226.62 176.632 226.966 175.975 227.098 175.261L228.85 165.786C232.891 164.268 236.618 162.114 239.967 159.368L249.029 162.594C249.712 162.835 250.453 162.863 251.153 162.674C251.853 162.485 252.478 162.087 252.946 161.533L253.147 161.299C257.031 156.712 260.011 151.545 262.031 145.931L262.132 145.641C262.31 145.116 262.366 144.558 262.299 144.022Z" fill="#F6EDDD"/>
<path d="M234.643 127.884C234.643 124.502 233.784 121.31 232.277 118.531C228.951 112.404 222.467 108.241 215 108.241C204.152 108.241 195.357 117.036 195.357 127.884C195.357 135.35 199.52 141.835 205.647 145.161C208.426 146.667 211.607 147.527 215 147.527C225.848 147.527 234.643 138.732 234.643 127.884ZM202.5 127.884C202.5 124.547 203.806 121.411 206.161 119.045C208.527 116.679 211.663 115.384 215 115.384C218.337 115.384 221.473 116.679 223.839 119.045C225.002 120.204 225.924 121.582 226.552 123.099C227.18 124.616 227.503 126.242 227.5 127.884C227.5 131.221 226.194 134.357 223.839 136.723C222.68 137.886 221.302 138.808 219.785 139.436C218.268 140.064 216.642 140.386 215 140.384C211.663 140.384 208.527 139.078 206.161 136.723C204.998 135.564 204.076 134.186 203.448 132.669C202.82 131.152 202.497 129.526 202.5 127.884Z" fill="#333333"/>
<path d="M224.163 178.129C224.877 178 225.535 177.656 226.05 177.144C226.564 176.632 226.91 175.975 227.042 175.261L228.795 165.775C232.833 164.261 236.593 162.088 239.922 159.346L248.996 162.571C249.679 162.813 250.42 162.841 251.12 162.652C251.819 162.462 252.445 162.065 252.913 161.511L253.114 161.277C256.998 156.69 259.989 151.511 262.009 145.886L262.109 145.596C262.299 145.083 262.355 144.547 262.299 144.022C262.199 143.141 261.775 142.304 261.071 141.69L253.784 135.451L253.761 135.44C254.107 133.319 254.286 131.154 254.286 128.989C254.286 127.103 254.152 125.205 253.884 123.353C253.85 123.107 253.806 122.862 253.772 122.616C253.772 122.594 253.761 122.56 253.761 122.538L261.071 116.288C261.842 115.629 262.288 114.681 262.321 113.699C262.333 113.252 262.266 112.795 262.109 112.359L262.009 112.069C259.996 106.444 256.983 101.23 253.114 96.6786L252.913 96.4442C252.444 95.8923 251.818 95.4956 251.119 95.3063C250.419 95.1171 249.679 95.1441 248.996 95.3839L239.922 98.6094C236.574 95.8638 232.846 93.6987 228.806 92.1808H228.795L227.042 82.6942C227.031 82.6384 227.02 82.5714 226.998 82.5156C226.837 81.8408 226.483 81.2274 225.98 80.7499C225.476 80.2724 224.845 79.9514 224.163 79.8259L223.862 79.7701C218.047 78.721 211.931 78.721 206.116 79.7701L205.815 79.8259C205.1 79.9553 204.442 80.299 203.928 80.8114C203.414 81.3237 203.067 81.9804 202.935 82.6942L201.172 92.2255C197.164 93.7436 193.432 95.9077 190.123 98.6317L180.982 95.3839C180.299 95.1422 179.558 95.1142 178.858 95.3036C178.158 95.493 177.533 95.8908 177.065 96.4442L176.864 96.6786C172.999 101.234 169.986 106.447 167.969 112.069L167.868 112.359C167.636 113.008 167.595 113.71 167.752 114.381C167.908 115.052 168.255 115.664 168.75 116.143C168.806 116.188 168.85 116.243 168.906 116.288L176.306 122.605V122.616C175.96 124.714 175.792 126.846 175.792 128.978C175.792 131.121 175.96 133.263 176.306 135.35L168.906 141.667C168.355 142.139 167.96 142.768 167.775 143.47C167.589 144.172 167.622 144.913 167.868 145.596L167.969 145.886C169.989 151.511 172.98 156.701 176.864 161.277L177.065 161.511C177.612 162.147 178.337 162.56 179.129 162.705C179.732 162.817 180.368 162.783 180.982 162.571L190.123 159.324C190.134 159.335 190.156 159.346 190.167 159.357C193.482 162.069 197.176 164.223 201.172 165.73L202.935 175.261C203.067 175.975 203.414 176.632 203.928 177.144C204.442 177.656 205.1 178 205.815 178.129L206.116 178.185C209.029 178.71 212.009 178.978 214.989 178.978H215.022C217.991 178.978 220.971 178.71 223.862 178.185L224.163 178.129ZM219.721 170.708C216.569 171.065 213.387 171.065 210.234 170.708L208.237 159.859L204.018 158.241C200.837 157.036 197.879 155.317 195.234 153.141L191.73 150.25L181.306 153.955C179.409 151.4 177.824 148.643 176.551 145.741L184.978 138.542L184.252 134.078C183.984 132.415 183.839 130.696 183.839 129C183.839 127.292 183.973 125.585 184.252 123.922L184.978 119.458L176.551 112.259C177.813 109.346 179.409 106.6 181.306 104.045L191.73 107.75L195.234 104.859C197.879 102.683 200.837 100.964 204.018 99.7589L208.248 98.1629L210.246 87.3147C213.382 86.9576 216.585 86.9576 219.732 87.3147L221.73 98.1406L225.982 99.7366C229.185 100.942 232.165 102.661 234.833 104.848L238.337 107.728L248.694 104.056C250.592 106.612 252.176 109.368 253.449 112.27L245.112 119.402L245.837 123.855C246.116 125.54 246.261 127.27 246.261 129C246.261 130.73 246.116 132.46 245.837 134.145L245.1 138.621L253.438 145.752C252.174 148.664 250.578 151.42 248.683 153.967L238.326 150.295L234.821 153.174C232.154 155.362 229.185 157.08 225.971 158.286L221.719 159.882L219.721 170.708Z" fill="#333333"/>
</g>
<g clip-path="url(#clip1_158_40)">
<path d="M223.672 163.08C221.566 158.093 218.511 153.564 214.676 149.743C210.853 145.912 206.324 142.857 201.339 140.748C201.295 140.725 201.25 140.714 201.205 140.692C208.158 135.67 212.679 127.489 212.679 118.259C212.679 102.969 200.29 90.5804 185 90.5804C169.71 90.5804 157.321 102.969 157.321 118.259C157.321 127.489 161.841 135.67 168.795 140.703C168.75 140.725 168.705 140.737 168.661 140.759C163.661 142.868 159.174 145.893 155.324 149.754C151.492 153.578 148.438 158.107 146.328 163.092C144.256 167.972 143.138 173.204 143.036 178.504C143.033 178.624 143.054 178.742 143.097 178.853C143.141 178.964 143.206 179.065 143.289 179.15C143.372 179.236 143.472 179.303 143.582 179.35C143.691 179.396 143.809 179.42 143.929 179.42H150.625C151.116 179.42 151.507 179.029 151.518 178.549C151.741 169.933 155.201 161.864 161.317 155.748C167.645 149.42 176.049 145.938 185 145.938C193.951 145.938 202.355 149.42 208.683 155.748C214.799 161.864 218.259 169.933 218.482 178.549C218.493 179.04 218.884 179.42 219.375 179.42H226.071C226.191 179.42 226.309 179.396 226.418 179.35C226.528 179.303 226.628 179.236 226.711 179.15C226.794 179.065 226.859 178.964 226.903 178.853C226.946 178.742 226.967 178.624 226.964 178.504C226.853 173.17 225.748 167.98 223.672 163.08ZM185 137.455C179.877 137.455 175.056 135.458 171.429 131.83C167.801 128.203 165.804 123.382 165.804 118.259C165.804 113.136 167.801 108.315 171.429 104.687C175.056 101.06 179.877 99.0625 185 99.0625C190.123 99.0625 194.944 101.06 198.571 104.687C202.199 108.315 204.196 113.136 204.196 118.259C204.196 123.382 202.199 128.203 198.571 131.83C194.944 135.458 190.123 137.455 185 137.455Z" fill="black"/>
<ellipse cx="185" cy="179.5" rx="34" ry="33.5" fill="#F6EDDD"/>
<ellipse cx="185" cy="179.5" rx="34" ry="33.5" fill="#F6EDDD"/>
<circle cx="184.5" cy="118.5" r="19.5" fill="#F6EDDD"/>
<circle cx="184.5" cy="118.5" r="19.5" fill="#F6EDDD"/>
</g>
<defs>
<clipPath id="clip0_158_40">
<rect width="100" height="100" fill="white" transform="translate(165 79)"/>
</clipPath>
<clipPath id="clip1_158_40">
<rect width="100" height="100" fill="white" transform="translate(135 85)"/>
</clipPath>
</defs>
</svg>
