<svg width="400" height="263" viewBox="0 0 400 263" fill="none" xmlns="http://www.w3.org/2000/svg">
<rect width="400" height="263" fill="#F6EDDD"/>
<path d="M131.453 88.25L79.4187 90.3333C79.3779 90.3348 79.3372 90.3376 79.2966 90.3415C79.2667 90.3439 79.2369 90.3466 79.2071 90.3496C78.1564 90.4238 77.1728 90.8931 76.4541 91.6631C75.7354 92.4331 75.335 93.4467 75.3334 94.5V152.394C75.3334 154.862 76.0668 157.275 77.433 159.327L88.5332 175.978C88.9382 176.585 89.4957 177.076 90.1498 177.4C90.804 177.724 91.5318 177.871 92.2605 177.825L158.927 173.659C159.985 173.592 160.978 173.125 161.704 172.353C162.429 171.58 162.833 170.56 162.833 169.5V104.917C162.832 103.874 162.44 102.869 161.735 102.101C161.567 101.88 161.357 101.694 161.116 101.556L161.108 101.548C160.865 101.371 160.603 101.22 160.327 101.1L143.237 91.3506L143.375 91.4401C139.885 89.0676 135.689 87.9421 131.478 88.25H131.453ZM131.689 92.4085C131.714 92.409 131.738 92.409 131.762 92.4085C135.043 92.1643 138.313 93.0346 141.032 94.8825C141.077 94.9141 141.123 94.944 141.17 94.972L151.684 100.97L95.5645 102.784L85.6198 94.2559L131.689 92.4085ZM154.5 109.222V165.586L96.1667 169.231V111.102L154.5 109.222ZM148.006 117.425C143.781 117.675 139.532 117.881 135.294 118.198C133.903 118.302 132.869 119.506 132.698 120.826C132.619 121.443 132.788 121.761 133.488 121.811C134.771 121.907 136.044 122.088 137.378 122.243V146.697C136.986 146.135 136.772 145.838 136.572 145.534C131.114 137.288 125.631 129.057 120.223 120.778C119.406 119.528 118.642 118.926 117.008 119.109C113.187 119.53 109.334 119.656 105.501 119.964C103.376 120.135 102.114 121.996 102.685 124.017C104.123 124.142 105.572 124.27 107.055 124.399V159.531C106.08 159.806 105.109 160.115 104.126 160.353C103.126 160.595 102.657 161.267 102.466 162.192C102.311 162.934 102.493 163.309 103.401 163.242C106.522 163.021 109.66 162.884 112.785 162.697C114.076 162.622 115.371 162.596 116.642 162.387C118.375 162.1 119.319 161.044 119.507 159.352C117.965 159.01 116.414 158.635 114.852 158.335C114.156 158.201 113.92 157.916 113.924 157.195C113.949 149.045 113.944 140.891 113.948 132.741C113.948 132.474 114.004 132.202 114.054 131.756C114.296 132.077 114.394 132.208 114.485 132.35C118.702 138.896 122.906 145.458 127.148 151.987C128.973 154.795 130.843 157.574 132.763 160.32C134.155 162.312 136.196 162.944 138.517 162.461C139.967 162.156 141.36 161.576 142.781 161.126C143.573 160.876 143.803 160.364 143.799 159.531C143.769 147.556 143.782 135.585 143.782 123.61C143.782 121.381 143.775 121.382 145.988 120.924C148.021 120.503 148.618 119.508 148.006 117.425Z" fill="black"/>
<path d="M275.667 90.3333L271.5 94.5H250.667V102.833H254.833V165.333C254.833 167.509 255.63 169.728 257.201 171.298C258.772 172.869 260.991 173.667 263.167 173.667H304.833C307.009 173.667 309.227 172.869 310.798 171.298C312.369 169.728 313.167 167.509 313.167 165.333V102.833H317.333V94.5H296.5L292.333 90.3333H275.667ZM263.167 102.833H304.833V165.333H263.167V102.833ZM271.5 111.167V157H279.833V111.167H271.5ZM288.167 111.167V157H296.5V111.167H288.167Z" fill="black"/>
<g clip-path="url(#clip0_158_39)">
<path d="M209 108C195.194 108 184 119.194 184 133C184 146.806 195.194 158 209 158C222.806 158 234 146.806 234 133C234 119.194 222.806 108 209 108ZM219.714 134.339C219.714 134.585 219.513 134.786 219.268 134.786H210.786V143.268C210.786 143.513 210.585 143.714 210.339 143.714H207.661C207.415 143.714 207.214 143.513 207.214 143.268V134.786H198.732C198.487 134.786 198.286 134.585 198.286 134.339V131.661C198.286 131.415 198.487 131.214 198.732 131.214H207.214V122.732C207.214 122.487 207.415 122.286 207.661 122.286H210.339C210.585 122.286 210.786 122.487 210.786 122.732V131.214H219.268C219.513 131.214 219.714 131.415 219.714 131.661V134.339Z" fill="black"/>
</g>
<defs>
<clipPath id="clip0_158_39">
<rect width="50" height="50" fill="white" transform="translate(184 108)"/>
</clipPath>
</defs>
</svg>
